<svg xmlns="http://www.w3.org/2000/svg" viewBox="0 0 49.98 45.9"><defs><style>.cls-1{fill:#e4eaf8;}.cls-1,.cls-2,.cls-3{fill-rule:evenodd;}.cls-2{fill:#707487;}.cls-3{fill:#bc8c79;}.cls-4{fill:none;stroke:#000;stroke-linecap:round;stroke-linejoin:round;}</style></defs><title>Asset 6</title><g id="Layer_2" data-name="Layer 2"><g id="Layer_1-2" data-name="Layer 1"><polygon class="cls-1" points="49.48 0.5 0.5 0.5 0.5 33.16 49.48 33.16 49.48 0.5 49.48 0.5"/><polygon class="cls-2" points="31.11 33.16 18.87 33.16 16.83 45.4 33.15 45.4 31.11 33.16 31.11 33.16"/><path class="cls-3" d="M16.21,9H13.72V4.58H22.5L20.27,20.45a3.27,3.27,0,0,0,1.18,2.92A5.36,5.36,0,0,0,25,24.62h0a5.36,5.36,0,0,0,3.54-1.25,3.27,3.27,0,0,0,1.18-2.92L27.48,4.58h8.78V9H33.77L35.31,20a7.15,7.15,0,0,1-2.58,6.38A11.77,11.77,0,0,1,25,29.07h0a11.77,11.77,0,0,1-7.74-2.73A7.15,7.15,0,0,1,14.67,20L16.21,9Z"/><path class="cls-4" d="M.5,18.87V33.15h49V18.87m0-4.08V.5H.5V14.79M37.24,45.4H12.75M31.11,33.15H18.87l-2,12.25H33.15l-2-12.25ZM16.21,9H13.72V4.58H22.5L20.27,20.45a3.27,3.27,0,0,0,1.18,2.92A5.36,5.36,0,0,0,25,24.62h0a5.36,5.36,0,0,0,3.54-1.25,3.27,3.27,0,0,0,1.18-2.92L27.48,4.58h8.78V9H33.77L35.31,20a7.15,7.15,0,0,1-2.58,6.38A11.77,11.77,0,0,1,25,29.07h0a11.77,11.77,0,0,1-7.74-2.73A7.15,7.15,0,0,1,14.67,20L16.21,9Z"/></g></g></svg>