<svg xmlns="http://www.w3.org/2000/svg" viewBox="0 0 49.98 31.57"><defs><style>.cls-1{fill:#ffc850;}.cls-1,.cls-2{fill-rule:evenodd;}.cls-2{fill:#fc4f4f;}.cls-3{fill:none;stroke:#000;stroke-linecap:round;stroke-linejoin:round;}</style></defs><title>Asset 7</title><g id="Layer_2" data-name="Layer 2"><g id="Layer_1-2" data-name="Layer 1"><path class="cls-1" d="M4.58,10.66.5,6.58s3.17-2,11.07,0L8.66,2.49s7.81-.88,12.25,4.09c0,0,0-2.61-3-6,0,0,7.19-1.18,9.08,6,0,0,2.42-6.87,13-5.78,0,0-4.31,3-5.62,6.83,0,0,5-5.49,15.12-3.79,0,0-4.54,3.06-4.08,6.82L41.32,27,8.66,25.52,4.58,10.66Z"/><polygon class="cls-2" points="49.48 10.66 0.5 10.66 0.5 18.82 49.48 18.82 49.48 10.66 49.48 10.66"/><polygon class="cls-2" points="49.48 22.9 0.5 22.9 0.5 31.07 49.48 31.07 49.48 22.9 49.48 22.9"/><polygon class="cls-2" points="12.75 18.82 4.58 18.82 4.58 22.9 12.75 22.9 12.75 18.82 12.75 18.82"/><polygon class="cls-2" points="45.4 18.82 37.24 18.82 37.24 22.9 45.4 22.9 45.4 18.82 45.4 18.82"/><path class="cls-3" d="M49.48,10.66H.5v8.16h49V10.66Zm-25,20.41h1m3.57,0H49.48V22.9H.5v8.17H20.91M12.75,18.82H4.58V22.9h8.17V18.82Zm32.65,0H37.24V22.9H45.4V18.82ZM4.58,10.66.5,6.58s3.17-2,11.07,0L8.66,2.49s7.81-.88,12.25,4.09c0,0,0-2.61-3-6,0,0,7.19-1.18,9.08,6,0,0,2.42-6.87,13-5.78,0,0-4.31,3-5.62,6.83,0,0,5-5.49,15.12-3.79,0,0-4.54,3.06-4.08,6.82"/></g></g></svg>