<svg xmlns="http://www.w3.org/2000/svg" viewBox="0 0 49.98 33.65"><defs><style>.cls-1{fill:#ffc850;}.cls-1,.cls-2{fill-rule:evenodd;}.cls-2{fill:#e4eaf8;}.cls-3{fill:none;stroke:#000;stroke-linecap:round;stroke-linejoin:round;}</style></defs><title>Asset 5</title><g id="Layer_2" data-name="Layer 2"><g id="Layer_1-2" data-name="Layer 1"><polygon class="cls-1" points="41.32 29.07 41.32 4.58 37.24 0.5 0.5 0.5 0.5 33.16 37.24 33.16 41.32 29.07 41.32 29.07"/><polygon class="cls-1" points="41.32 4.58 45.4 0.5 49.48 0.5 49.48 33.16 45.4 33.16 41.32 29.07 41.32 4.58 41.32 4.58"/><path class="cls-2" d="M12.89,9.71H10.61V5.64h8l-2,14.5a3,3,0,0,0,1.08,2.66,4.87,4.87,0,0,0,3.23,1.14h0a4.89,4.89,0,0,0,3.23-1.14,3,3,0,0,0,1.08-2.66l-2-14.5h8V9.71H28.93l1.41,10A6.59,6.59,0,0,1,28,25.52,10.79,10.79,0,0,1,20.91,28h0a10.79,10.79,0,0,1-7.07-2.49,6.54,6.54,0,0,1-2.36-5.83l1.41-10Z"/><path class="cls-3" d="M12.89,9.71H10.61V5.64h8l-2,14.5a3,3,0,0,0,1.08,2.66,4.87,4.87,0,0,0,3.23,1.14h0a4.89,4.89,0,0,0,3.23-1.14,3,3,0,0,0,1.08-2.66l-2-14.5h8V9.71H28.93l1.41,10A6.59,6.59,0,0,1,28,25.52,10.79,10.79,0,0,1,20.91,28h0a10.79,10.79,0,0,1-7.07-2.49,6.54,6.54,0,0,1-2.36-5.83l1.41-10ZM.5,16.32v1m0,3.57V33.15H37.24l4.08-4.08V4.58L37.24.5H.5V12.75M41.32,4.58,45.4.5h4.08V33.15H45.4l-4.08-4.08"/></g></g></svg>